<?xml version="1.0" encoding="utf-8"?>
<!-- Generator: Adobe Illustrator 24.1.2, SVG Export Plug-In . SVG Version: 6.00 Build 0)  -->
<svg version="1.1" id="Layer_1" xmlns="http://www.w3.org/2000/svg" xmlns:xlink="http://www.w3.org/1999/xlink" x="0px" y="0px"
	 viewBox="0 0 866.4 208" style="enable-background:new 0 0 866.4 208;" xml:space="preserve">
<style type="text/css">
	.st0{clip-path:url(#SVGID_2_);}
	.st1{clip-path:url(#SVGID_4_);}
	.st2{clip-path:url(#SVGID_6_);}
	.st3{clip-path:url(#SVGID_8_);}
	.st4{fill:#D18787;}
	.st5{clip-path:url(#SVGID_10_);}
	.st6{clip-path:url(#SVGID_12_);}
	.st7{clip-path:url(#SVGID_14_);}
	.st8{clip-path:url(#SVGID_16_);}
	.st9{clip-path:url(#SVGID_18_);}
	.st10{clip-path:url(#SVGID_20_);}
	.st11{clip-path:url(#SVGID_22_);}
	.st12{clip-path:url(#SVGID_24_);}
	.st13{fill:none;stroke:#D18787;stroke-width:8.5039;stroke-linecap:round;stroke-linejoin:round;}
</style>
<g>
	<g>
		<g>
			<defs>
				<rect id="SVGID_1_" x="677.4" y="19" width="184" height="184"/>
			</defs>
			<clipPath id="SVGID_2_">
				<use xlink:href="#SVGID_1_"  style="overflow:visible;"/>
			</clipPath>
			<g class="st0">
				<g>
					<g>
						<g>
							<g>
								<defs>
									<rect id="SVGID_3_" x="676.4" y="19" width="185" height="185"/>
								</defs>
								<clipPath id="SVGID_4_">
									<use xlink:href="#SVGID_3_"  style="overflow:visible;"/>
								</clipPath>
								<g class="st1">
									<g>
										<g>
											<g>
												<defs>
													<path id="SVGID_5_" d="M854.2,144.8v-115c0-6-4.8-10.8-10.8-10.8h-148c-6,0-10.8,4.8-10.8,10.8v115H681
														c-2,0-3.6,1.6-3.6,3.6l0,0v10.8c0,6,4.8,10.8,10.8,10.8h87.2v22.3c0,5.9,4.8,10.8,10.8,10.8h42.9
														c6,0,10.8-4.8,10.8-10.8V170h10.8c6,0,10.8-4.8,10.8-10.8v-10.8c0-2-1.6-3.6-3.6-3.6l0,0L854.2,144.8L854.2,144.8z
														 M839.8,144.8h7.2v-7.2h-7.2V144.8z M695.4,26.2h148c2,0,3.6,1.6,3.6,3.6l0,0v3.6H691.8v-3.6
														C691.8,27.8,693.4,26.2,695.4,26.2L695.4,26.2z M691.8,137.6h3.6c2-0.1,3.5-1.8,3.4-3.8c-0.1-1.8-1.6-3.3-3.4-3.4h-3.6
														V40.6H847v89.8h-7.2V106c0-6-4.8-10.8-10.8-10.8h-42.9c-1.6,0-3.2,0.3-4.6,1l-15.4-15.4h5.7c2-0.1,3.5-1.8,3.4-3.8
														c-0.1-1.8-1.6-3.3-3.4-3.4h-14.4c-2,0-3.6,1.6-3.6,3.6v14.4c-0.1,2,1.4,3.7,3.4,3.8c2,0.1,3.7-1.4,3.8-3.4
														c0-0.1,0-0.3,0-0.4v-5.7l15.4,15.4c-0.7,1.5-1,3.1-1,4.7v24.4h-47.7c-2,0.1-3.5,1.8-3.4,3.8c0.1,1.8,1.6,3.3,3.4,3.4
														h47.7v10.8h-24c0-2-1.6-3.6-3.6-3.6l0,0h-56L691.8,137.6L691.8,137.6z M688.2,162.8c-2,0-3.6-1.6-3.6-3.6V152h60.6
														c1.3,2.2,3.7,3.6,6.2,3.6h24v7.2H688.2z M832.7,192.2c0,2-1.6,3.6-3.6,3.6h-42.9c-2,0-3.6-1.6-3.6-3.6l0,0v-84.8
														l16.5,16.5h-5.7c-2,0.1-3.5,1.8-3.4,3.8c0.1,1.8,1.6,3.3,3.4,3.4h14.4c2,0,3.6-1.6,3.6-3.6v-14.4
														c0.1-2-1.4-3.7-3.4-3.8c-2-0.1-3.7,1.4-3.8,3.4c0,0.1,0,0.3,0,0.4v5.7l-16.5-16.5h41.4c2,0,3.6,1.6,3.6,3.6V192.2z
														 M854.2,159.1c0,2-1.6,3.6-3.6,3.6h-10.8V152h14.4L854.2,159.1z"/>
												</defs>
												<clipPath id="SVGID_6_">
													<use xlink:href="#SVGID_5_"  style="overflow:visible;"/>
												</clipPath>
												<g class="st2">
													<g>
														<g>
															<g>
																<defs>
																	<rect id="SVGID_7_" x="677.4" y="19" width="184" height="184"/>
																</defs>
																<clipPath id="SVGID_8_">
																	<use xlink:href="#SVGID_7_"  style="overflow:visible;"/>
																</clipPath>
																<g class="st3">
																	<rect x="672.4" y="14" class="st4" width="194" height="194"/>
																</g>
															</g>
														</g>
													</g>
												</g>
											</g>
										</g>
									</g>
								</g>
							</g>
						</g>
					</g>
				</g>
			</g>
		</g>
	</g>
</g>
<g>
	<g>
		<g>
			<defs>
				<path id="SVGID_9_" d="M806.9,186L806.9,186c-1.9,0-3.5,1.6-3.5,3.5s1.6,3.5,3.5,3.5s3.5-1.6,3.5-3.5S808.8,186,806.9,186
					L806.9,186"/>
			</defs>
			<clipPath id="SVGID_10_">
				<use xlink:href="#SVGID_9_"  style="overflow:visible;"/>
			</clipPath>
			<g class="st5">
				<g>
					<g>
						<g>
							<defs>
								<rect id="SVGID_11_" x="-257.6" y="-672" width="1440" height="3589"/>
							</defs>
							<clipPath id="SVGID_12_">
								<use xlink:href="#SVGID_11_"  style="overflow:visible;"/>
							</clipPath>
							<g class="st6">
								<rect x="798.4" y="181" class="st4" width="17" height="17"/>
							</g>
						</g>
					</g>
				</g>
			</g>
		</g>
	</g>
</g>
<g>
	<g>
		<g>
			<defs>
				<path id="SVGID_13_" d="M815,56h19.8c1.9,0,3.5-1.6,3.5-3.5s-1.6-3.5-3.5-3.5H815c-1.9,0-3.5,1.6-3.5,3.5S813.1,56,815,56
					L815,56"/>
			</defs>
			<clipPath id="SVGID_14_">
				<use xlink:href="#SVGID_13_"  style="overflow:visible;"/>
			</clipPath>
			<g class="st7">
				<g>
					<g>
						<g>
							<defs>
								<rect id="SVGID_15_" x="-257.6" y="-672" width="1440" height="3589"/>
							</defs>
							<clipPath id="SVGID_16_">
								<use xlink:href="#SVGID_15_"  style="overflow:visible;"/>
							</clipPath>
							<g class="st8">
								<rect x="806.4" y="44" class="st4" width="37" height="17"/>
							</g>
						</g>
					</g>
				</g>
			</g>
		</g>
	</g>
</g>
<g>
	<g>
		<g>
			<defs>
				<path id="SVGID_17_" d="M799.9,56c1.9,0,3.5-1.6,3.5-3.5s-1.6-3.5-3.5-3.5l0,0c-1.9,0-3.5,1.6-3.5,3.5S798,56,799.9,56"/>
			</defs>
			<clipPath id="SVGID_18_">
				<use xlink:href="#SVGID_17_"  style="overflow:visible;"/>
			</clipPath>
			<g class="st9">
				<g>
					<g>
						<g>
							<defs>
								<rect id="SVGID_19_" x="-257.6" y="-672" width="1440" height="3589"/>
							</defs>
							<clipPath id="SVGID_20_">
								<use xlink:href="#SVGID_19_"  style="overflow:visible;"/>
							</clipPath>
							<g class="st10">
								<rect x="791.4" y="44" class="st4" width="17" height="17"/>
							</g>
						</g>
					</g>
				</g>
			</g>
		</g>
	</g>
</g>
<g>
	<g>
		<g>
			<defs>
				<path id="SVGID_21_" d="M709.9,132L709.9,132c-1.9,0-3.5,1.6-3.5,3.5s1.6,3.5,3.5,3.5s3.5-1.6,3.5-3.5S711.8,132,709.9,132"/>
			</defs>
			<clipPath id="SVGID_22_">
				<use xlink:href="#SVGID_21_"  style="overflow:visible;"/>
			</clipPath>
			<g class="st11">
				<g>
					<g>
						<g>
							<defs>
								<rect id="SVGID_23_" x="-257.6" y="-672" width="1440" height="3589"/>
							</defs>
							<clipPath id="SVGID_24_">
								<use xlink:href="#SVGID_23_"  style="overflow:visible;"/>
							</clipPath>
							<g class="st12">
								<rect x="701.4" y="127" class="st4" width="17" height="17"/>
							</g>
						</g>
					</g>
				</g>
			</g>
		</g>
	</g>
</g>
<line class="st13" x1="218.5" y1="104.3" x2="313.5" y2="104.3"/>
<line class="st13" x1="560.9" y1="104.3" x2="655.9" y2="104.3"/>
<g>
	<g>
		<g>
			<path class="st4" d="M371.3,104v94.1h125.4V104H371.3z M488.9,190.2H379.1v-78.4h109.8L488.9,190.2L488.9,190.2z"/>
		</g>
	</g>
	<g>
		<g>
			<path class="st4" d="M488.9,64.8c-0.8,0-1.7,0-2.5,0.1c-3.2-11-13.3-19.1-24.9-19.7C454.8,24.3,435.3,9.9,413,9.9
				c-28.1,0-51,22.9-51,51c0,2.5,0.2,5.1,0.6,7.6c-13.7,6.4-22.7,20.3-22.7,35.5c0,20,15,36.8,34.8,39l0.9-7.8
				c-15.9-1.8-27.9-15.2-27.9-31.2c0-13.1,8.3-24.9,20.7-29.4l3.2-1.2l-0.7-3.3c-0.7-3.1-1-6.1-1-9.2c0-23.8,19.3-43.1,43.1-43.1
				c19.7,0,36.8,13.3,41.7,32.4l1.1,3.1l3.3-0.2c0.3,0,0.6,0,0.9,0c9.6,0,18,7.2,19.4,16.7l0.6,3.9l3.9-0.6c1.8-0.3,3.4-0.4,5-0.4
				c17.3,0,31.4,14.1,31.4,31.4c0,16-12,29.4-27.9,31.2l0.9,7.8c19.9-2.2,34.8-18.9,34.8-39C528.1,82.4,510.5,64.8,488.9,64.8z"/>
		</g>
	</g>
	<g>
		<g>
			<polygon class="st4" points="490,126.9 465.1,151.7 445.5,132.1 410.2,167.4 394.6,151.7 372.2,174.1 377.7,179.7 394.6,162.8 
				410.2,178.5 445.5,143.2 465.1,162.8 495.5,132.4 			"/>
		</g>
	</g>
	<g>
		<g>
			<path class="st4" d="M406.5,119.7c-6.5,0-11.8,5.3-11.8,11.8s5.3,11.8,11.8,11.8s11.8-5.3,11.8-11.8S413,119.7,406.5,119.7z
				 M406.5,135.4c-2.2,0-3.9-1.8-3.9-3.9c0-2.2,1.8-3.9,3.9-3.9c2.2,0,3.9,1.8,3.9,3.9C410.5,133.6,408.7,135.4,406.5,135.4z"/>
		</g>
	</g>
</g>
<g>
	<g>
		<g>
			<circle class="st13" cx="100.7" cy="111.6" r="38.1"/>
			<path class="st13" d="M176.8,50.7h-24.2c-3.1,0-5.9-1.2-8.1-3.3l-13.9-13.9c-3.6-3.6-8.4-5.6-13.5-5.6H84.1
				c-5.1,0-9.9,2-13.5,5.6L56.8,47.3c-2.2,2.2-5,3.3-8.1,3.3H24.5c-8.4,0-15.2,6.8-15.2,15.2v99c0,8.4,6.8,15.2,15.2,15.2h152.3
				c8.4,0,15.2-6.8,15.2-15.2v-99C192.1,57.5,185.2,50.7,176.8,50.7z M161.6,88.8c-4.2,0-7.6-3.4-7.6-7.6s3.4-7.6,7.6-7.6
				c4.2,0,7.6,3.4,7.6,7.6S165.8,88.8,161.6,88.8z"/>
		</g>
	</g>
</g>
</svg>
